<svg xmlns="http://www.w3.org/2000/svg" width="1200" height="660" viewBox="0 0 1200 660" role="img" aria-labelledby="title desc">
<title id="title">Understand Knowledge example output</title><desc id="desc">An illustrative graph showing the kind of reviewable output produced by Understand Knowledge.</desc>
<rect width="1200" height="660" rx="26" fill="#F8FAFC"/><rect width="1200" height="14" rx="7" fill="#4D7C0F"/>
<style>text { font-family: Inter, ui-sans-serif, system-ui, -apple-system, BlinkMacSystemFont, "Segoe UI", sans-serif; }</style>
<text x="54" y="62" font-size="14" font-weight="750" fill="#4D7C0F" text-anchor="start"><tspan x="54" dy="0">EXAMPLE GRAPH OUTPUT</tspan></text><text x="54" y="110" font-size="31" font-weight="760" fill="#0F172A" text-anchor="start"><tspan x="54" dy="0">Understand Knowledge</tspan></text><rect x="70" y="175" width="1060" height="455" rx="22" fill="#FFFFFF" stroke="#CBD5E1"/><path d="M250 290 L530 230" stroke="#4D7C0F" stroke-width="3"/><path d="M530 230 L820 300" stroke="#4D7C0F" stroke-width="3"/><path d="M250 290 L380 470" stroke="#4D7C0F" stroke-width="3"/><path d="M380 470 L720 490" stroke="#4D7C0F" stroke-width="3"/><path d="M720 490 L820 300" stroke="#4D7C0F" stroke-width="3"/><path d="M530 230 L720 490" stroke="#4D7C0F" stroke-width="3"/><rect x="160" y="255" width="180" height="70" rx="18" fill="#F7FEE7" stroke="#4D7C0F"/><text x="250" y="285" font-size="15" font-weight="700" fill="#4D7C0F" text-anchor="middle"><tspan x="250" dy="0">Concept node</tspan></text><rect x="440" y="195" width="180" height="70" rx="18" fill="#ECFCCB" stroke="#4D7C0F"/><text x="530" y="225" font-size="15" font-weight="700" fill="#4D7C0F" text-anchor="middle"><tspan x="530" dy="0">Citation edge</tspan></text><rect x="730" y="265" width="180" height="70" rx="18" fill="#ECFCCB" stroke="#4D7C0F"/><text x="820" y="295" font-size="15" font-weight="700" fill="#4D7C0F" text-anchor="middle"><tspan x="820" dy="0">Bridge topic</tspan></text><rect x="290" y="435" width="180" height="70" rx="18" fill="#ECFCCB" stroke="#4D7C0F"/><text x="380" y="465" font-size="15" font-weight="700" fill="#4D7C0F" text-anchor="middle"><tspan x="380" dy="0">Cluster 07</tspan></text><rect x="630" y="455" width="180" height="70" rx="18" fill="#ECFCCB" stroke="#4D7C0F"/><text x="720" y="485" font-size="15" font-weight="700" fill="#4D7C0F" text-anchor="middle"><tspan x="720" dy="0">Concept node</tspan></text></svg>